<?xml version="1.0" encoding="UTF-8" standalone="no"?><svg xmlns="http://www.w3.org/2000/svg" xmlns:xlink="http://www.w3.org/1999/xlink" contentScriptType="application/ecmascript" contentStyleType="text/css" height="975px" preserveAspectRatio="none" style="width:1347px;height:975px;" version="1.1" viewBox="0 0 1347 975" width="1347px" zoomAndPan="magnify"><defs><filter height="300%" id="f12nvo2b25bfve" width="300%" x="-1" y="-1"><feGaussianBlur result="blurOut" stdDeviation="2.0"/><feColorMatrix in="blurOut" result="blurOut2" type="matrix" values="0 0 0 0 0 0 0 0 0 0 0 0 0 0 0 0 0 0 .4 0"/><feOffset dx="4.0" dy="4.0" in="blurOut2" result="blurOut3"/><feBlend in="SourceGraphic" in2="blurOut3" mode="normal"/></filter></defs><g><!--class ComplexInstruktion--><rect fill="#FEFECE" filter="url(#f12nvo2b25bfve)" height="137.8913" id="ComplexInstruktion" style="stroke: #A80036; stroke-width: 1.5;" width="304" x="158.5" y="591.5"/><ellipse cx="251.75" cy="607.5" fill="#ADD1B2" rx="11" ry="11" style="stroke: #A80036; stroke-width: 1.0;"/><path d="M251.4375,603.8281 Q249.9531,603.8281 249.1719,604.9375 Q248.3906,606.0469 248.3906,607.9688 Q248.3906,609.9063 249.1094,610.9688 Q249.8281,612.0313 251.4375,612.0313 Q252.1563,612.0313 252.9063,611.8594 Q253.6563,611.6875 254.5313,611.375 L254.5313,613.5469 Q253.7188,613.8594 252.9375,614.0156 Q252.1563,614.1719 251.1875,614.1719 Q249.3125,614.1719 248.1016,613.3984 Q246.8906,612.625 246.3125,611.2188 Q245.7344,609.8125 245.7344,607.9531 Q245.7344,606.1094 246.3984,604.7031 Q247.0625,603.2969 248.3281,602.4922 Q249.5938,601.6875 251.4375,601.6875 Q252.3281,601.6875 253.2422,601.9219 Q254.1563,602.1563 254.9844,602.5469 L254.1563,604.6406 Q253.4688,604.3125 252.7813,604.0703 Q252.0938,603.8281 251.4375,603.8281 Z "/><text fill="#000000" font-family="sans-serif" font-size="12" lengthAdjust="spacingAndGlyphs" textLength="109" x="272.25" y="612.156">ComplexInstruktion</text><line style="stroke: #A80036; stroke-width: 1.5;" x1="159.5" x2="461.5" y1="623.5" y2="623.5"/><rect fill="none" height="6" style="stroke: #C82930; stroke-width: 1.0;" width="6" x="166.5" y="633.4909"/><text fill="#000000" font-family="sans-serif" font-size="11" lengthAdjust="spacingAndGlyphs" textLength="232" x="178.5" y="639.2589">instructions : std::vector&lt;SimpleInstruktion&gt;</text><line style="stroke: #A80036; stroke-width: 1.5;" x1="159.5" x2="461.5" y1="646.4819" y2="646.4819"/><ellipse cx="169.5" cy="659.4728" fill="#84BE84" rx="3" ry="3" style="stroke: #038048; stroke-width: 1.0;"/><text fill="#000000" font-family="sans-serif" font-size="11" lengthAdjust="spacingAndGlyphs" textLength="167" x="178.5" y="662.2408">ComplexInstruktion(std:: string)</text><ellipse cx="169.5" cy="674.4547" fill="#84BE84" rx="3" ry="3" style="stroke: #038048; stroke-width: 1.0;"/><text fill="#000000" font-family="sans-serif" font-size="11" lengthAdjust="spacingAndGlyphs" textLength="278" x="178.5" y="677.2227">ComplexInstruktion(std:: string, SimpleInstruktion &amp;)</text><ellipse cx="169.5" cy="689.4366" fill="#84BE84" rx="3" ry="3" style="stroke: #038048; stroke-width: 1.0;"/><text fill="#000000" font-family="sans-serif" font-size="11" lengthAdjust="spacingAndGlyphs" textLength="94" x="178.5" y="692.2046">print() : std::string</text><ellipse cx="169.5" cy="704.4185" fill="#84BE84" rx="3" ry="3" style="stroke: #038048; stroke-width: 1.0;"/><text fill="#000000" font-family="sans-serif" font-size="11" lengthAdjust="spacingAndGlyphs" textLength="163" x="178.5" y="707.1865">add(SimpleInstruktion &amp;) : void</text><ellipse cx="169.5" cy="719.4004" fill="#84BE84" rx="3" ry="3" style="stroke: #038048; stroke-width: 1.0;"/><text fill="#000000" font-family="sans-serif" font-size="11" lengthAdjust="spacingAndGlyphs" textLength="147" x="178.5" y="722.1684">run(VirtualMachine &amp;) : void</text><!--class Datei--><rect fill="#FEFECE" filter="url(#f12nvo2b25bfve)" height="122.9094" id="Datei" style="stroke: #A80036; stroke-width: 1.5;" width="302" x="459.5" y="8"/><ellipse cx="592.25" cy="24" fill="#A9DCDF" rx="11" ry="11" style="stroke: #A80036; stroke-width: 1.0;"/><path d="M595.2031,29.25 L594.3281,26.3594 L589.9063,26.3594 L589.0156,29.25 L586.25,29.25 L590.5313,17.0625 L593.6719,17.0625 L597.9844,29.25 L595.2031,29.25 Z M593.7188,24.2031 L592.8281,21.375 Q592.75,21.0938 592.6094,20.6484 Q592.4688,20.2031 592.3359,19.7422 Q592.2031,19.2813 592.1094,18.9531 Q592.0313,19.2813 591.8828,19.7891 Q591.7344,20.2969 591.6094,20.7422 Q591.4844,21.1875 591.4219,21.375 L590.5469,24.2031 L593.7188,24.2031 Z "/><text fill="#000000" font-family="sans-serif" font-size="12" font-style="italic" lengthAdjust="spacingAndGlyphs" textLength="28" x="612.75" y="28.656">Datei</text><line style="stroke: #A80036; stroke-width: 1.5;" x1="460.5" x2="760.5" y1="40" y2="40"/><polygon fill="none" points="470.5,47.9909,474.5,51.9909,470.5,55.9909,466.5,51.9909" style="stroke: #B38D22; stroke-width: 1.0;"/><text fill="#000000" font-family="sans-serif" font-size="11" lengthAdjust="spacingAndGlyphs" textLength="111" x="479.5" y="55.7589">language : std::string</text><line style="stroke: #A80036; stroke-width: 1.5;" x1="460.5" x2="760.5" y1="62.9819" y2="62.9819"/><ellipse cx="470.5" cy="75.9728" fill="#84BE84" rx="3" ry="3" style="stroke: #038048; stroke-width: 1.0;"/><text fill="#000000" font-family="sans-serif" font-size="11" lengthAdjust="spacingAndGlyphs" textLength="89" x="479.5" y="78.7408">Datei(std:: string)</text><ellipse cx="470.5" cy="90.9547" fill="#84BE84" rx="3" ry="3" style="stroke: #038048; stroke-width: 1.0;"/><text fill="#000000" font-family="sans-serif" font-size="11" lengthAdjust="spacingAndGlyphs" textLength="276" x="479.5" y="93.7227">operator&lt;&lt;(std::ostream &amp;, Datei &amp;) : std : : ostream&amp;</text><ellipse cx="470.5" cy="105.9366" fill="#84BE84" rx="3" ry="3" style="stroke: #038048; stroke-width: 1.0;"/><text fill="#000000" font-family="sans-serif" font-size="11" lengthAdjust="spacingAndGlyphs" textLength="111" x="479.5" y="108.7046">getLang() : std::string</text><ellipse cx="470.5" cy="120.9185" fill="#84BE84" rx="3" ry="3" style="stroke: #038048; stroke-width: 1.0;"/><text fill="#000000" font-family="sans-serif" font-size="11" font-style="italic" lengthAdjust="spacingAndGlyphs" textLength="87" x="479.5" y="123.6865">print() : std::string</text><!--class Instruktion--><rect fill="#FEFECE" filter="url(#f12nvo2b25bfve)" height="92.9457" id="Instruktion" style="stroke: #A80036; stroke-width: 1.5;" width="161" x="230" y="303.5"/><ellipse cx="276.75" cy="319.5" fill="#A9DCDF" rx="11" ry="11" style="stroke: #A80036; stroke-width: 1.0;"/><path d="M279.7031,324.75 L278.8281,321.8594 L274.4063,321.8594 L273.5156,324.75 L270.75,324.75 L275.0313,312.5625 L278.1719,312.5625 L282.4844,324.75 L279.7031,324.75 Z M278.2188,319.7031 L277.3281,316.875 Q277.25,316.5938 277.1094,316.1484 Q276.9688,315.7031 276.8359,315.2422 Q276.7031,314.7813 276.6094,314.4531 Q276.5313,314.7813 276.3828,315.2891 Q276.2344,315.7969 276.1094,316.2422 Q275.9844,316.6875 275.9219,316.875 L275.0469,319.7031 L278.2188,319.7031 Z "/><text fill="#000000" font-family="sans-serif" font-size="12" font-style="italic" lengthAdjust="spacingAndGlyphs" textLength="59" x="297.25" y="324.156">Instruktion</text><line style="stroke: #A80036; stroke-width: 1.5;" x1="231" x2="390" y1="335.5" y2="335.5"/><line style="stroke: #A80036; stroke-width: 1.5;" x1="231" x2="390" y1="343.5" y2="343.5"/><ellipse cx="241" cy="356.4909" fill="#84BE84" rx="3" ry="3" style="stroke: #038048; stroke-width: 1.0;"/><text fill="#000000" font-family="sans-serif" font-size="11" lengthAdjust="spacingAndGlyphs" textLength="135" x="250" y="359.2589">Instruktion(std::string str)</text><ellipse cx="241" cy="371.4728" fill="#84BE84" rx="3" ry="3" style="stroke: #038048; stroke-width: 1.0;"/><text fill="#000000" font-family="sans-serif" font-size="11" font-style="italic" lengthAdjust="spacingAndGlyphs" textLength="87" x="250" y="374.2408">print() : std::string</text><ellipse cx="241" cy="386.4547" fill="#84BE84" rx="3" ry="3" style="stroke: #038048; stroke-width: 1.0;"/><text fill="#000000" font-family="sans-serif" font-size="11" font-style="italic" lengthAdjust="spacingAndGlyphs" textLength="133" x="250" y="389.2227">run(VirtualMachine &amp;) : void</text><!--class JSON--><rect fill="#FEFECE" filter="url(#f12nvo2b25bfve)" height="107.9276" id="JSON" style="stroke: #A80036; stroke-width: 1.5;" width="301" x="990" y="15.5"/><ellipse cx="1122.25" cy="31.5" fill="#ADD1B2" rx="11" ry="11" style="stroke: #A80036; stroke-width: 1.0;"/><path d="M1121.9375,27.8281 Q1120.4531,27.8281 1119.6719,28.9375 Q1118.8906,30.0469 1118.8906,31.9688 Q1118.8906,33.9063 1119.6094,34.9688 Q1120.3281,36.0313 1121.9375,36.0313 Q1122.6563,36.0313 1123.4063,35.8594 Q1124.1563,35.6875 1125.0313,35.375 L1125.0313,37.5469 Q1124.2188,37.8594 1123.4375,38.0156 Q1122.6563,38.1719 1121.6875,38.1719 Q1119.8125,38.1719 1118.6016,37.3984 Q1117.3906,36.625 1116.8125,35.2188 Q1116.2344,33.8125 1116.2344,31.9531 Q1116.2344,30.1094 1116.8984,28.7031 Q1117.5625,27.2969 1118.8281,26.4922 Q1120.0938,25.6875 1121.9375,25.6875 Q1122.8281,25.6875 1123.7422,25.9219 Q1124.6563,26.1563 1125.4844,26.5469 L1124.6563,28.6406 Q1123.9688,28.3125 1123.2813,28.0703 Q1122.5938,27.8281 1121.9375,27.8281 Z "/><text fill="#000000" font-family="sans-serif" font-size="12" lengthAdjust="spacingAndGlyphs" textLength="28" x="1142.75" y="36.156">JSON</text><line style="stroke: #A80036; stroke-width: 1.5;" x1="991" x2="1290" y1="47.5" y2="47.5"/><polygon fill="none" points="1001,55.4909,1005,59.4909,1001,63.4909,997,59.4909" style="stroke: #B38D22; stroke-width: 1.0;"/><text fill="#000000" font-family="sans-serif" font-size="11" lengthAdjust="spacingAndGlyphs" textLength="102" x="1010" y="63.2589">content : std::string</text><line style="stroke: #A80036; stroke-width: 1.5;" x1="991" x2="1290" y1="70.4819" y2="70.4819"/><ellipse cx="1001" cy="83.4728" fill="#84BE84" rx="3" ry="3" style="stroke: #038048; stroke-width: 1.0;"/><text fill="#000000" font-family="sans-serif" font-size="11" lengthAdjust="spacingAndGlyphs" textLength="128" x="1010" y="86.2408">JSON(std::string content)</text><ellipse cx="1001" cy="98.4547" fill="#84BE84" rx="3" ry="3" style="stroke: #038048; stroke-width: 1.0;"/><text fill="#000000" font-family="sans-serif" font-size="11" lengthAdjust="spacingAndGlyphs" textLength="37" x="1010" y="101.2227">string()</text><ellipse cx="1001" cy="113.4366" fill="#84BE84" rx="3" ry="3" style="stroke: #038048; stroke-width: 1.0;"/><text fill="#000000" font-family="sans-serif" font-size="11" lengthAdjust="spacingAndGlyphs" textLength="275" x="1010" y="116.2046">operator&lt;&lt;(std::ostream &amp;, JSON &amp;) : std : : ostream&amp;</text><!--class JSONArray--><rect fill="#FEFECE" filter="url(#f12nvo2b25bfve)" height="92.9457" id="JSONArray" style="stroke: #A80036; stroke-width: 1.5;" width="180" x="1156.5" y="303.5"/><ellipse cx="1212.75" cy="319.5" fill="#ADD1B2" rx="11" ry="11" style="stroke: #A80036; stroke-width: 1.0;"/><path d="M1212.4375,315.8281 Q1210.9531,315.8281 1210.1719,316.9375 Q1209.3906,318.0469 1209.3906,319.9688 Q1209.3906,321.9063 1210.1094,322.9688 Q1210.8281,324.0313 1212.4375,324.0313 Q1213.1563,324.0313 1213.9063,323.8594 Q1214.6563,323.6875 1215.5313,323.375 L1215.5313,325.5469 Q1214.7188,325.8594 1213.9375,326.0156 Q1213.1563,326.1719 1212.1875,326.1719 Q1210.3125,326.1719 1209.1016,325.3984 Q1207.8906,324.625 1207.3125,323.2188 Q1206.7344,321.8125 1206.7344,319.9531 Q1206.7344,318.1094 1207.3984,316.7031 Q1208.0625,315.2969 1209.3281,314.4922 Q1210.5938,313.6875 1212.4375,313.6875 Q1213.3281,313.6875 1214.2422,313.9219 Q1215.1563,314.1563 1215.9844,314.5469 L1215.1563,316.6406 Q1214.4688,316.3125 1213.7813,316.0703 Q1213.0938,315.8281 1212.4375,315.8281 Z "/><text fill="#000000" font-family="sans-serif" font-size="12" lengthAdjust="spacingAndGlyphs" textLength="59" x="1233.25" y="324.156">JSONArray</text><line style="stroke: #A80036; stroke-width: 1.5;" x1="1157.5" x2="1335.5" y1="335.5" y2="335.5"/><line style="stroke: #A80036; stroke-width: 1.5;" x1="1157.5" x2="1335.5" y1="343.5" y2="343.5"/><ellipse cx="1167.5" cy="356.4909" fill="#84BE84" rx="3" ry="3" style="stroke: #038048; stroke-width: 1.0;"/><text fill="#000000" font-family="sans-serif" font-size="11" lengthAdjust="spacingAndGlyphs" textLength="117" x="1176.5" y="359.2589">JSONArray(std:: string)</text><ellipse cx="1167.5" cy="371.4728" fill="#84BE84" rx="3" ry="3" style="stroke: #038048; stroke-width: 1.0;"/><text fill="#000000" font-family="sans-serif" font-size="11" lengthAdjust="spacingAndGlyphs" textLength="154" x="1176.5" y="374.2408">operator[](int n) : JSONObject</text><ellipse cx="1167.5" cy="386.4547" fill="#84BE84" rx="3" ry="3" style="stroke: #038048; stroke-width: 1.0;"/><text fill="#000000" font-family="sans-serif" font-size="11" lengthAdjust="spacingAndGlyphs" textLength="79" x="1176.5" y="389.2227">set(int, T) : void</text><!--class JSONObject--><rect fill="#FEFECE" filter="url(#f12nvo2b25bfve)" height="137.8913" id="JSONObject" style="stroke: #A80036; stroke-width: 1.5;" width="174" x="947.5" y="281"/><ellipse cx="998.25" cy="297" fill="#ADD1B2" rx="11" ry="11" style="stroke: #A80036; stroke-width: 1.0;"/><path d="M997.9375,293.3281 Q996.4531,293.3281 995.6719,294.4375 Q994.8906,295.5469 994.8906,297.4688 Q994.8906,299.4063 995.6094,300.4688 Q996.3281,301.5313 997.9375,301.5313 Q998.6563,301.5313 999.4063,301.3594 Q1000.1563,301.1875 1001.0313,300.875 L1001.0313,303.0469 Q1000.2188,303.3594 999.4375,303.5156 Q998.6563,303.6719 997.6875,303.6719 Q995.8125,303.6719 994.6016,302.8984 Q993.3906,302.125 992.8125,300.7188 Q992.2344,299.3125 992.2344,297.4531 Q992.2344,295.6094 992.8984,294.2031 Q993.5625,292.7969 994.8281,291.9922 Q996.0938,291.1875 997.9375,291.1875 Q998.8281,291.1875 999.7422,291.4219 Q1000.6563,291.6563 1001.4844,292.0469 L1000.6563,294.1406 Q999.9688,293.8125 999.2813,293.5703 Q998.5938,293.3281 997.9375,293.3281 Z "/><text fill="#000000" font-family="sans-serif" font-size="12" lengthAdjust="spacingAndGlyphs" textLength="64" x="1018.75" y="301.656">JSONObject</text><line style="stroke: #A80036; stroke-width: 1.5;" x1="948.5" x2="1120.5" y1="313" y2="313"/><line style="stroke: #A80036; stroke-width: 1.5;" x1="948.5" x2="1120.5" y1="321" y2="321"/><ellipse cx="958.5" cy="333.9909" fill="#84BE84" rx="3" ry="3" style="stroke: #038048; stroke-width: 1.0;"/><text fill="#000000" font-family="sans-serif" font-size="11" lengthAdjust="spacingAndGlyphs" textLength="122" x="967.5" y="336.7589">JSONObject(std:: string)</text><ellipse cx="958.5" cy="348.9728" fill="#84BE84" rx="3" ry="3" style="stroke: #038048; stroke-width: 1.0;"/><text fill="#000000" font-family="sans-serif" font-size="11" lengthAdjust="spacingAndGlyphs" textLength="67" x="967.5" y="351.7408">operatorint()</text><ellipse cx="958.5" cy="363.9547" fill="#84BE84" rx="3" ry="3" style="stroke: #038048; stroke-width: 1.0;"/><text fill="#000000" font-family="sans-serif" font-size="11" lengthAdjust="spacingAndGlyphs" textLength="106" x="967.5" y="366.7227">toArr() : JSONArray&amp;</text><ellipse cx="958.5" cy="378.9366" fill="#84BE84" rx="3" ry="3" style="stroke: #038048; stroke-width: 1.0;"/><text fill="#000000" font-family="sans-serif" font-size="11" lengthAdjust="spacingAndGlyphs" textLength="148" x="967.5" y="381.7046">get(std:: string) : JSONObject</text><ellipse cx="958.5" cy="393.9185" fill="#84BE84" rx="3" ry="3" style="stroke: #038048; stroke-width: 1.0;"/><text fill="#000000" font-family="sans-serif" font-size="11" lengthAdjust="spacingAndGlyphs" textLength="144" x="967.5" y="396.6865">operator[](int) : JSONObject</text><ellipse cx="958.5" cy="408.9004" fill="#84BE84" rx="3" ry="3" style="stroke: #038048; stroke-width: 1.0;"/><text fill="#000000" font-family="sans-serif" font-size="11" lengthAdjust="spacingAndGlyphs" textLength="124" x="967.5" y="411.6684">put(std:: string, T) : void</text><!--class Memory--><rect fill="#FEFECE" filter="url(#f12nvo2b25bfve)" height="182.837" id="Memory" style="stroke: #A80036; stroke-width: 1.5;" width="361" x="498" y="569"/><ellipse cx="650.75" cy="585" fill="#ADD1B2" rx="11" ry="11" style="stroke: #A80036; stroke-width: 1.0;"/><path d="M650.4375,581.3281 Q648.9531,581.3281 648.1719,582.4375 Q647.3906,583.5469 647.3906,585.4688 Q647.3906,587.4063 648.1094,588.4688 Q648.8281,589.5313 650.4375,589.5313 Q651.1563,589.5313 651.9063,589.3594 Q652.6563,589.1875 653.5313,588.875 L653.5313,591.0469 Q652.7188,591.3594 651.9375,591.5156 Q651.1563,591.6719 650.1875,591.6719 Q648.3125,591.6719 647.1016,590.8984 Q645.8906,590.125 645.3125,588.7188 Q644.7344,587.3125 644.7344,585.4531 Q644.7344,583.6094 645.3984,582.2031 Q646.0625,580.7969 647.3281,579.9922 Q648.5938,579.1875 650.4375,579.1875 Q651.3281,579.1875 652.2422,579.4219 Q653.1563,579.6563 653.9844,580.0469 L653.1563,582.1406 Q652.4688,581.8125 651.7813,581.5703 Q651.0938,581.3281 650.4375,581.3281 Z "/><text fill="#000000" font-family="sans-serif" font-size="12" lengthAdjust="spacingAndGlyphs" textLength="47" x="671.25" y="589.656">Memory</text><line style="stroke: #A80036; stroke-width: 1.5;" x1="499" x2="858" y1="601" y2="601"/><rect fill="none" height="6" style="stroke: #C82930; stroke-width: 1.0;" width="6" x="506" y="610.9909"/><text fill="#000000" font-family="sans-serif" font-size="11" lengthAdjust="spacingAndGlyphs" textLength="125" x="518" y="616.7589">size : const unsigned int</text><rect fill="none" height="6" style="stroke: #C82930; stroke-width: 1.0;" width="6" x="506" y="625.9728"/><text fill="#000000" font-family="sans-serif" font-size="11" lengthAdjust="spacingAndGlyphs" textLength="134" x="518" y="631.7408">speicherBereich : uint8_t*</text><line style="stroke: #A80036; stroke-width: 1.5;" x1="499" x2="858" y1="638.9638" y2="638.9638"/><ellipse cx="509" cy="651.9547" fill="#84BE84" rx="3" ry="3" style="stroke: #038048; stroke-width: 1.0;"/><text fill="#000000" font-family="sans-serif" font-size="11" lengthAdjust="spacingAndGlyphs" textLength="116" x="518" y="654.7227">Memory(unsigned int)</text><ellipse cx="509" cy="666.9366" fill="#84BE84" rx="3" ry="3" style="stroke: #038048; stroke-width: 1.0;"/><text fill="#000000" font-family="sans-serif" font-size="11" lengthAdjust="spacingAndGlyphs" textLength="136" x="518" y="669.7046">Memory(const Memory &amp;)</text><ellipse cx="509" cy="681.9185" fill="#84BE84" rx="3" ry="3" style="stroke: #038048; stroke-width: 1.0;"/><text fill="#000000" font-family="sans-serif" font-size="11" lengthAdjust="spacingAndGlyphs" textLength="56" x="518" y="684.6865">~Memory()</text><ellipse cx="509" cy="696.9004" fill="#84BE84" rx="3" ry="3" style="stroke: #038048; stroke-width: 1.0;"/><text fill="#000000" font-family="sans-serif" font-size="11" lengthAdjust="spacingAndGlyphs" textLength="327" x="518" y="699.6684">shiftLeft(unsigned int, uint8_t, uint8_t, uint8_t &amp;, uint8_t) : bool</text><ellipse cx="509" cy="711.8823" fill="#84BE84" rx="3" ry="3" style="stroke: #038048; stroke-width: 1.0;"/><text fill="#000000" font-family="sans-serif" font-size="11" lengthAdjust="spacingAndGlyphs" textLength="335" x="518" y="714.6502">shiftRight(unsigned int, uint8_t, uint8_t, uint8_t &amp;, uint8_t) : bool</text><ellipse cx="509" cy="726.8642" fill="#84BE84" rx="3" ry="3" style="stroke: #038048; stroke-width: 1.0;"/><text fill="#000000" font-family="sans-serif" font-size="11" lengthAdjust="spacingAndGlyphs" textLength="174" x="518" y="729.6321">write(unsigned int, uint8_t) : bool</text><ellipse cx="509" cy="741.846" fill="#84BE84" rx="3" ry="3" style="stroke: #038048; stroke-width: 1.0;"/><text fill="#000000" font-family="sans-serif" font-size="11" lengthAdjust="spacingAndGlyphs" textLength="149" x="518" y="744.614">read(unsigned int) : uint8_t&amp;</text><!--class SimpleInstruktion--><rect fill="#FEFECE" filter="url(#f12nvo2b25bfve)" height="152.8732" id="SimpleInstruktion" style="stroke: #A80036; stroke-width: 1.5;" width="403" x="6" y="812"/><ellipse cx="154.25" cy="828" fill="#ADD1B2" rx="11" ry="11" style="stroke: #A80036; stroke-width: 1.0;"/><path d="M153.9375,824.3281 Q152.4531,824.3281 151.6719,825.4375 Q150.8906,826.5469 150.8906,828.4688 Q150.8906,830.4063 151.6094,831.4688 Q152.3281,832.5313 153.9375,832.5313 Q154.6563,832.5313 155.4063,832.3594 Q156.1563,832.1875 157.0313,831.875 L157.0313,834.0469 Q156.2188,834.3594 155.4375,834.5156 Q154.6563,834.6719 153.6875,834.6719 Q151.8125,834.6719 150.6016,833.8984 Q149.3906,833.125 148.8125,831.7188 Q148.2344,830.3125 148.2344,828.4531 Q148.2344,826.6094 148.8984,825.2031 Q149.5625,823.7969 150.8281,822.9922 Q152.0938,822.1875 153.9375,822.1875 Q154.8281,822.1875 155.7422,822.4219 Q156.6563,822.6563 157.4844,823.0469 L156.6563,825.1406 Q155.9688,824.8125 155.2813,824.5703 Q154.5938,824.3281 153.9375,824.3281 Z "/><text fill="#000000" font-family="sans-serif" font-size="12" lengthAdjust="spacingAndGlyphs" textLength="98" x="174.75" y="832.656">SimpleInstruktion</text><line style="stroke: #A80036; stroke-width: 1.5;" x1="7" x2="408" y1="844" y2="844"/><rect fill="none" height="6" style="stroke: #C82930; stroke-width: 1.0;" width="6" x="14" y="853.9909"/><text fill="#000000" font-family="sans-serif" font-size="11" lengthAdjust="spacingAndGlyphs" textLength="102" x="26" y="859.7589">param1 : std::string</text><rect fill="none" height="6" style="stroke: #C82930; stroke-width: 1.0;" width="6" x="14" y="868.9728"/><text fill="#000000" font-family="sans-serif" font-size="11" lengthAdjust="spacingAndGlyphs" textLength="102" x="26" y="874.7408">param2 : std::string</text><rect fill="none" height="6" style="stroke: #C82930; stroke-width: 1.0;" width="6" x="14" y="883.9547"/><text fill="#000000" font-family="sans-serif" font-size="11" lengthAdjust="spacingAndGlyphs" textLength="140" x="26" y="889.7227">representation : std::string</text><rect fill="none" height="6" style="stroke: #C82930; stroke-width: 1.0;" width="6" x="14" y="898.9366"/><text fill="#000000" font-family="sans-serif" font-size="11" lengthAdjust="spacingAndGlyphs" textLength="82" x="26" y="904.7046">function : void*</text><line style="stroke: #A80036; stroke-width: 1.5;" x1="7" x2="408" y1="911.9276" y2="911.9276"/><ellipse cx="17" cy="924.9185" fill="#84BE84" rx="3" ry="3" style="stroke: #038048; stroke-width: 1.0;"/><text fill="#000000" font-family="sans-serif" font-size="11" lengthAdjust="spacingAndGlyphs" textLength="377" x="26" y="927.6865">SimpleInstruktion(std:: string, std:: string, void*, std:: string, std:: string)</text><ellipse cx="17" cy="939.9004" fill="#84BE84" rx="3" ry="3" style="stroke: #038048; stroke-width: 1.0;"/><text fill="#000000" font-family="sans-serif" font-size="11" lengthAdjust="spacingAndGlyphs" textLength="94" x="26" y="942.6684">print() : std::string</text><ellipse cx="17" cy="954.8823" fill="#84BE84" rx="3" ry="3" style="stroke: #038048; stroke-width: 1.0;"/><text fill="#000000" font-family="sans-serif" font-size="11" lengthAdjust="spacingAndGlyphs" textLength="147" x="26" y="957.6502">run(VirtualMachine &amp;) : void</text><!--class Sprache--><rect fill="#FEFECE" filter="url(#f12nvo2b25bfve)" height="122.9094" id="Sprache" style="stroke: #A80036; stroke-width: 1.5;" width="281" x="894" y="599"/><ellipse cx="1007.25" cy="615" fill="#ADD1B2" rx="11" ry="11" style="stroke: #A80036; stroke-width: 1.0;"/><path d="M1006.9375,611.3281 Q1005.4531,611.3281 1004.6719,612.4375 Q1003.8906,613.5469 1003.8906,615.4688 Q1003.8906,617.4063 1004.6094,618.4688 Q1005.3281,619.5313 1006.9375,619.5313 Q1007.6563,619.5313 1008.4063,619.3594 Q1009.1563,619.1875 1010.0313,618.875 L1010.0313,621.0469 Q1009.2188,621.3594 1008.4375,621.5156 Q1007.6563,621.6719 1006.6875,621.6719 Q1004.8125,621.6719 1003.6016,620.8984 Q1002.3906,620.125 1001.8125,618.7188 Q1001.2344,617.3125 1001.2344,615.4531 Q1001.2344,613.6094 1001.8984,612.2031 Q1002.5625,610.7969 1003.8281,609.9922 Q1005.0938,609.1875 1006.9375,609.1875 Q1007.8281,609.1875 1008.7422,609.4219 Q1009.6563,609.6563 1010.4844,610.0469 L1009.6563,612.1406 Q1008.9688,611.8125 1008.2813,611.5703 Q1007.5938,611.3281 1006.9375,611.3281 Z "/><text fill="#000000" font-family="sans-serif" font-size="12" lengthAdjust="spacingAndGlyphs" textLength="46" x="1027.75" y="619.656">Sprache</text><line style="stroke: #A80036; stroke-width: 1.5;" x1="895" x2="1174" y1="631" y2="631"/><ellipse cx="905" cy="643.9909" fill="none" rx="3" ry="3" style="stroke: #038048; stroke-width: 1.0;"/><text fill="#000000" font-family="sans-serif" font-size="11" lengthAdjust="spacingAndGlyphs" text-decoration="underline" textLength="255" x="914" y="646.7589">languageElements : static std::vector&lt;std::string&gt;</text><line style="stroke: #000000; stroke-width: 1.0;" x1="914" x2="1169" y1="648.7589" y2="648.7589"/><ellipse cx="905" cy="658.9728" fill="none" rx="3" ry="3" style="stroke: #038048; stroke-width: 1.0;"/><text fill="#000000" font-family="sans-serif" font-size="11" lengthAdjust="spacingAndGlyphs" textLength="240" x="914" y="661.7408">instructions : std::map&lt;std::string, std::string&gt;</text><line style="stroke: #A80036; stroke-width: 1.5;" x1="895" x2="1174" y1="668.9638" y2="668.9638"/><ellipse cx="905" cy="681.9547" fill="#84BE84" rx="3" ry="3" style="stroke: #038048; stroke-width: 1.0;"/><text fill="#000000" font-family="sans-serif" font-size="11" lengthAdjust="spacingAndGlyphs" textLength="166" x="914" y="684.7227">Sprache(std:: string, std:: string)</text><ellipse cx="905" cy="696.9366" fill="#84BE84" rx="3" ry="3" style="stroke: #038048; stroke-width: 1.0;"/><text fill="#000000" font-family="sans-serif" font-size="11" lengthAdjust="spacingAndGlyphs" textLength="94" x="914" y="699.7046">print() : std::string</text><ellipse cx="905" cy="711.9185" fill="#84BE84" rx="3" ry="3" style="stroke: #038048; stroke-width: 1.0;"/><text fill="#000000" font-family="sans-serif" font-size="11" lengthAdjust="spacingAndGlyphs" text-decoration="underline" textLength="127" x="914" y="714.6865">printEmpty() : std::string</text><line style="stroke: #000000; stroke-width: 1.0;" x1="914" x2="1041" y1="716.6865" y2="716.6865"/><!--class VirtualMachine--><rect fill="#FEFECE" filter="url(#f12nvo2b25bfve)" height="317.674" id="VirtualMachine" style="stroke: #A80036; stroke-width: 1.5;" width="325" x="516" y="191"/><ellipse cx="632.25" cy="207" fill="#ADD1B2" rx="11" ry="11" style="stroke: #A80036; stroke-width: 1.0;"/><path d="M631.9375,203.3281 Q630.4531,203.3281 629.6719,204.4375 Q628.8906,205.5469 628.8906,207.4688 Q628.8906,209.4063 629.6094,210.4688 Q630.3281,211.5313 631.9375,211.5313 Q632.6563,211.5313 633.4063,211.3594 Q634.1563,211.1875 635.0313,210.875 L635.0313,213.0469 Q634.2188,213.3594 633.4375,213.5156 Q632.6563,213.6719 631.6875,213.6719 Q629.8125,213.6719 628.6016,212.8984 Q627.3906,212.125 626.8125,210.7188 Q626.2344,209.3125 626.2344,207.4531 Q626.2344,205.6094 626.8984,204.2031 Q627.5625,202.7969 628.8281,201.9922 Q630.0938,201.1875 631.9375,201.1875 Q632.8281,201.1875 633.7422,201.4219 Q634.6563,201.6563 635.4844,202.0469 L634.6563,204.1406 Q633.9688,203.8125 633.2813,203.5703 Q632.5938,203.3281 631.9375,203.3281 Z "/><text fill="#000000" font-family="sans-serif" font-size="12" lengthAdjust="spacingAndGlyphs" textLength="84" x="652.75" y="211.656">VirtualMachine</text><line style="stroke: #A80036; stroke-width: 1.5;" x1="517" x2="840" y1="223" y2="223"/><rect fill="none" height="6" style="stroke: #C82930; stroke-width: 1.0;" width="6" x="524" y="232.9909"/><text fill="#000000" font-family="sans-serif" font-size="11" lengthAdjust="spacingAndGlyphs" textLength="165" x="536" y="238.7589">generalRegisterArray : Memory</text><rect fill="none" height="6" style="stroke: #C82930; stroke-width: 1.0;" width="6" x="524" y="247.9728"/><text fill="#000000" font-family="sans-serif" font-size="11" lengthAdjust="spacingAndGlyphs" textLength="97" x="536" y="253.7408">memory : Memory</text><rect fill="none" height="6" style="stroke: #C82930; stroke-width: 1.0;" width="6" x="524" y="262.9547"/><text fill="#000000" font-family="sans-serif" font-size="11" lengthAdjust="spacingAndGlyphs" textLength="160" x="536" y="268.7227">specialRegisterArray : Memory</text><rect fill="none" height="6" style="stroke: #C82930; stroke-width: 1.0;" width="6" x="524" y="277.9366"/><text fill="#000000" font-family="sans-serif" font-size="11" lengthAdjust="spacingAndGlyphs" textLength="100" x="536" y="283.7046">language : Sprache</text><rect fill="none" height="6" style="stroke: #C82930; stroke-width: 1.0;" width="6" x="524" y="292.9185"/><text fill="#000000" font-family="sans-serif" font-size="11" lengthAdjust="spacingAndGlyphs" textLength="266" x="536" y="298.6865">labels : std::map&lt;std::string, ComplexInstruktion*&gt;</text><rect fill="none" height="6" style="stroke: #C82930; stroke-width: 1.0;" width="6" x="524" y="307.9004"/><text fill="#000000" font-family="sans-serif" font-size="11" lengthAdjust="spacingAndGlyphs" textLength="299" x="536" y="313.6684">subroutines : std::map&lt;std::string, ComplexInstruktion*&gt;</text><rect fill="none" height="6" style="stroke: #C82930; stroke-width: 1.0;" width="6" x="524" y="322.8823"/><text fill="#000000" font-family="sans-serif" font-size="11" lengthAdjust="spacingAndGlyphs" textLength="203" x="536" y="328.6502">functions : std::map&lt;std::string, void*&gt;</text><rect fill="none" height="6" style="stroke: #C82930; stroke-width: 1.0;" width="6" x="524" y="337.8642"/><text fill="#000000" font-family="sans-serif" font-size="11" lengthAdjust="spacingAndGlyphs" textLength="131" x="536" y="343.6321">stack : std::stack&lt;uint8_t&gt;</text><line style="stroke: #A80036; stroke-width: 1.5;" x1="517" x2="840" y1="350.8551" y2="350.8551"/><ellipse cx="527" cy="363.846" fill="#84BE84" rx="3" ry="3" style="stroke: #038048; stroke-width: 1.0;"/><text fill="#000000" font-family="sans-serif" font-size="11" lengthAdjust="spacingAndGlyphs" textLength="271" x="536" y="366.614">VirtualMachine(Sprache, unsigned int, unsigned int)</text><ellipse cx="527" cy="378.8279" fill="#84BE84" rx="3" ry="3" style="stroke: #038048; stroke-width: 1.0;"/><text fill="#000000" font-family="sans-serif" font-size="11" lengthAdjust="spacingAndGlyphs" textLength="174" x="536" y="381.5959">addSubroutine(std:: string) : bool</text><ellipse cx="527" cy="393.8098" fill="#84BE84" rx="3" ry="3" style="stroke: #038048; stroke-width: 1.0;"/><text fill="#000000" font-family="sans-serif" font-size="11" lengthAdjust="spacingAndGlyphs" textLength="172" x="536" y="396.5778">runInstruction(std:: string) : bool</text><ellipse cx="527" cy="408.7917" fill="#84BE84" rx="3" ry="3" style="stroke: #038048; stroke-width: 1.0;"/><text fill="#000000" font-family="sans-serif" font-size="11" lengthAdjust="spacingAndGlyphs" textLength="153" x="536" y="411.5597">getValue(std:: string) : uint8_t</text><ellipse cx="527" cy="423.7736" fill="#84BE84" rx="3" ry="3" style="stroke: #038048; stroke-width: 1.0;"/><text fill="#000000" font-family="sans-serif" font-size="11" lengthAdjust="spacingAndGlyphs" textLength="101" x="536" y="426.5416">popValue() : uint8_t</text><ellipse cx="527" cy="438.7555" fill="#84BE84" rx="3" ry="3" style="stroke: #038048; stroke-width: 1.0;"/><text fill="#000000" font-family="sans-serif" font-size="11" lengthAdjust="spacingAndGlyphs" textLength="184" x="536" y="441.5235">getReference(std:: string) : uint8_t&amp;</text><ellipse cx="527" cy="453.7374" fill="#84BE84" rx="3" ry="3" style="stroke: #038048; stroke-width: 1.0;"/><text fill="#000000" font-family="sans-serif" font-size="11" lengthAdjust="spacingAndGlyphs" textLength="129" x="536" y="456.5053">pushValue(uint8_t) : void</text><ellipse cx="527" cy="468.7193" fill="#84BE84" rx="3" ry="3" style="stroke: #038048; stroke-width: 1.0;"/><text fill="#000000" font-family="sans-serif" font-size="11" lengthAdjust="spacingAndGlyphs" textLength="83" x="536" y="471.4872">reRunAll() : void</text><ellipse cx="527" cy="483.7011" fill="#84BE84" rx="3" ry="3" style="stroke: #038048; stroke-width: 1.0;"/><text fill="#000000" font-family="sans-serif" font-size="11" lengthAdjust="spacingAndGlyphs" textLength="172" x="536" y="486.4691">runSubroutine(std:: string) : void</text><rect fill="#F24D5C" height="6" style="stroke: #C82930; stroke-width: 1.0;" width="6" x="524" y="495.683"/><text fill="#000000" font-family="sans-serif" font-size="11" lengthAdjust="spacingAndGlyphs" textLength="133" x="536" y="501.451">getPtr(std:: string) : void*</text><!--link Datei to Instruktion--><path d="M529.873,144.8862 C475.8731,195.3762 406.4897,260.2496 360.3625,303.3786 " fill="none" id="Datei-Instruktion" style="stroke: #A80036; stroke-width: 1.0;"/><polygon fill="none" points="525.274,139.6032,544.6637,131.0569,534.8355,149.8295,525.274,139.6032" style="stroke: #A80036; stroke-width: 1.0;"/><!--link Datei to Sprache--><path d="M779.5068,126.7153 C809.3705,143.4011 837.5591,164.5111 858.5,191 C948.3686,304.6783 872.4551,376.2224 930.5,509 C944.3013,540.5704 964.9675,572.467 984.25,598.7958 " fill="none" id="Datei-Sprache" style="stroke: #A80036; stroke-width: 1.0;"/><polygon fill="none" points="776.2197,132.8957,761.7721,117.395,782.7326,120.5028,776.2197,132.8957" style="stroke: #A80036; stroke-width: 1.0;"/><!--link Instruktion to ComplexInstruktion--><path d="M310.5,416.9004 C310.5,468.4004 310.5,539.3431 310.5,591.3889 " fill="none" id="Instruktion-ComplexInstruktion" style="stroke: #A80036; stroke-width: 1.0;"/><polygon fill="none" points="303.5001,416.8212,310.5,396.8212,317.5001,416.8211,303.5001,416.8212" style="stroke: #A80036; stroke-width: 1.0;"/><!--link Instruktion to SimpleInstruktion--><path d="M244.7212,411.2777 C206.224,451.8173 161.2241,508.5054 140.5,569 C114.1409,645.9435 122.1046,672.7743 140.5,752 C145.187,772.186 153.2994,792.8272 162.2959,811.7464 " fill="none" id="Instruktion-SimpleInstruktion" style="stroke: #A80036; stroke-width: 1.0;"/><polygon fill="none" points="239.8447,406.2521,258.8227,396.8266,249.8647,416.0296,239.8447,406.2521" style="stroke: #A80036; stroke-width: 1.0;"/><!--link JSON to JSONArray--><path d="M1168.0967,142.527 C1187.254,193.2218 1212.2114,259.2646 1228.7654,303.0704 " fill="none" id="JSON-JSONArray" style="stroke: #A80036; stroke-width: 1.0;"/><polygon fill="none" points="1161.4598,144.7664,1160.9379,123.5832,1174.5559,139.8174,1161.4598,144.7664" style="stroke: #A80036; stroke-width: 1.0;"/><!--link JSON to JSONObject--><path d="M1112.9619,142.372 C1096.8078,185.1195 1076.5143,238.8207 1060.613,280.8991 " fill="none" id="JSON-JSONObject" style="stroke: #A80036; stroke-width: 1.0;"/><polygon fill="none" points="1106.4441,139.8174,1120.0621,123.5832,1119.5402,144.7664,1106.4441,139.8174" style="stroke: #A80036; stroke-width: 1.0;"/><!--link JSONObject to Sprache--><path d="M1034.5,439.3095 C1034.5,490.3911 1034.5,553.1705 1034.5,598.7803 " fill="none" id="JSONObject-Sprache" style="stroke: #A80036; stroke-width: 1.0;"/><polygon fill="none" points="1027.5001,439.2958,1034.5,419.2958,1041.5001,439.2958,1027.5001,439.2958" style="stroke: #A80036; stroke-width: 1.0;"/><!--link ComplexInstruktion to SimpleInstruktion--><path d="M273.8533,741.6208 C263.5436,764.4422 252.3655,789.1861 242.1748,811.7441 " fill="none" id="ComplexInstruktion-SimpleInstruktion" style="stroke: #A80036; stroke-width: 1.0;"/><polygon fill="#FFFFFF" points="279.3171,729.5263,273.2016,733.3474,274.3767,740.4621,280.4922,736.641,279.3171,729.5263" style="stroke: #A80036; stroke-width: 1.0;"/><!--link VirtualMachine to ComplexInstruktion--><path d="M505.7161,495.7864 C466.1704,529.1531 425.9312,563.105 392.3416,591.4462 " fill="none" id="VirtualMachine-ComplexInstruktion" style="stroke: #A80036; stroke-width: 1.0;"/><polygon fill="#FFFFFF" points="515.7507,487.3197,508.5855,488.1318,506.5792,495.0582,513.7445,494.2461,515.7507,487.3197" style="stroke: #A80036; stroke-width: 1.0;"/><text fill="#000000" font-family="sans-serif" font-size="13" lengthAdjust="spacingAndGlyphs" textLength="7" x="501.2175" y="490.0772">2</text><!--link VirtualMachine to Memory--><path d="M678.5,522.7019 C678.5,538.5539 678.5,554.1601 678.5,568.8481 " fill="none" id="VirtualMachine-Memory" style="stroke: #A80036; stroke-width: 1.0;"/><polygon fill="#FFFFFF" points="678.5,509.3431,674.5,515.3431,678.5,521.3431,682.5,515.3431,678.5,509.3431" style="stroke: #A80036; stroke-width: 1.0;"/><text fill="#000000" font-family="sans-serif" font-size="13" lengthAdjust="spacingAndGlyphs" textLength="7" x="671.3523" y="530.3428">3</text><!--link VirtualMachine to Sprache--><path d="M850.9896,500.4439 C890.885,535.2403 931.1498,570.3589 963.7573,598.7988 " fill="none" id="VirtualMachine-Sprache" style="stroke: #A80036; stroke-width: 1.0;"/><polygon fill="#FFFFFF" points="841.1332,491.8472,843.0257,498.8055,850.1767,499.7349,848.2842,492.7765,841.1332,491.8472" style="stroke: #A80036; stroke-width: 1.0;"/><!--
@startuml name
class ComplexInstruktion {
	+ComplexInstruktion(std:: string)
	+ComplexInstruktion(std:: string, SimpleInstruktion &)
	+print() : std::string
	-instructions : std::vector<SimpleInstruktion>
	+add(SimpleInstruktion &) : void
	+run(VirtualMachine &) : void
}

abstract class Datei {
	+Datei(std:: string)
	+operator<<(std::ostream &, Datei &) : std : : ostream&
	+getLang() : std::string
	#language : std::string
	+{abstract} print() : std::string
}

abstract class Instruktion {
	+Instruktion(std::string str)
	+{abstract} print() : std::string
	+{abstract} run(VirtualMachine &) : void
}

class JSON {
	+JSON(std::string content)
	+string()
	+operator<<(std::ostream &, JSON &) : std : : ostream&
	#content : std::string
}

class JSONArray {
	+JSONArray(std:: string)
	+operator[](int n) : JSONObject
	+set(int, T) : void
}

class JSONObject {
	+JSONObject(std:: string)
	+operatorint()
	+toArr() : JSONArray&
	+get(std:: string) : JSONObject
	+operator[](int) : JSONObject
	+put(std:: string, T) : void
}

class Memory {
	+Memory(unsigned int)
	+Memory(const Memory &)
	+~Memory()
	+shiftLeft(unsigned int, uint8_t, uint8_t, uint8_t &, uint8_t) : bool
	+shiftRight(unsigned int, uint8_t, uint8_t, uint8_t &, uint8_t) : bool
	+write(unsigned int, uint8_t) : bool
	-size : const unsigned int
	+read(unsigned int) : uint8_t&
	-speicherBereich : uint8_t*
}

class SimpleInstruktion {
	+SimpleInstruktion(std:: string, std:: string, void*, std:: string, std:: string)
	-param1 : std::string
	-param2 : std::string
	+print() : std::string
	-representation : std::string
	+run(VirtualMachine &) : void
	-function : void*
}

class Sprache {
	+Sprache(std:: string, std:: string)
	+{static} languageElements : static std::vector<std::string>
	+instructions : std::map<std::string, std::string>
	+print() : std::string
	+{static} printEmpty() : std::string
}

class VirtualMachine {
	+VirtualMachine(Sprache, unsigned int, unsigned int)
	-generalRegisterArray : Memory
	-memory : Memory
	-specialRegisterArray : Memory
	-language : Sprache
	+addSubroutine(std:: string) : bool
	+runInstruction(std:: string) : bool
	-labels : std::map<std::string, ComplexInstruktion*>
	-subroutines : std::map<std::string, ComplexInstruktion*>
	-functions : std::map<std::string, void*>
	-stack : std::stack<uint8_t>
	+getValue(std:: string) : uint8_t
	+popValue() : uint8_t
	+getReference(std:: string) : uint8_t&
	+pushValue(uint8_t) : void
	+reRunAll() : void
	+runSubroutine(std:: string) : void
	-getPtr(std:: string) : void*
}

Datei <|- - Instruktion
Datei <|- - Sprache
Instruktion <|- - ComplexInstruktion
Instruktion <|- - SimpleInstruktion
JSON <|- - JSONArray
JSON <|- - JSONObject
JSONObject <|- - Sprache
ComplexInstruktion o- - SimpleInstruktion
VirtualMachine "2" o- - ComplexInstruktion
VirtualMachine "3" o- - Memory
VirtualMachine o- - Sprache

@enduml

PlantUML version 1.2018.03(Thu Apr 05 18:59:15 CEST 2018)
(GPL source distribution)
Java Runtime: OpenJDK Runtime Environment
JVM: OpenJDK 64-Bit Server VM
Java Version: 1.8.0_172-b11
Operating System: Linux
OS Version: 4.16.8-1-ARCH
Default Encoding: ANSI_X3.4-1968
Language: en
Country: US
--></g></svg>